<?xml version="1.0" encoding="UTF-8"?>
<svg id="Ebene_1" xmlns="http://www.w3.org/2000/svg" version="1.1" viewBox="0 0 1000 1000">
  <!-- Generator: Adobe Illustrator 29.5.1, SVG Export Plug-In . SVG Version: 2.1.0 Build 141)  -->
  <path d="M750.1186523,333.333313v-83.333313C750.1186523,111.928772,638.1898193,0,500.1186523,0s-250,111.928772-250,250v83.333313c-92.0474854,0-166.666687,74.6192017-166.666687,166.666687v333.333313c0,92.0474854,74.6192017,166.666687,166.666687,166.666687h500c92.0474243,0,166.666687-74.6192017,166.666687-166.666687v-333.333313c0-92.0474854-74.6192627-166.666687-166.666687-166.666687ZM333.4519653,250c0-92.0474854,74.6192017-166.666687,166.666687-166.666687,92.0474243,0,166.666687,74.6192017,166.666687,166.666687v83.333313h-333.333374v-83.333313ZM833.4519653,833.333313c0,46.0238037-37.3095703,83.333374-83.333313,83.333374H250.1186523c-46.0237427,0-83.333313-37.3095703-83.333313-83.333374v-333.333313c0-46.0237427,37.3095703-83.333313,83.333313-83.333313h500c46.0237427,0,83.333313,37.3095703,83.333313,83.333313v333.333313Z"/>
  <path d="M458.4519653,506.6310425c-65.0874023,23.0119019-99.1962891,94.430481-76.1844482,159.5178223,12.5855713,35.5974121,40.5869751,63.5988159,76.1844482,76.1844482v49.333374c0,23.0118408,18.6547852,41.666626,41.666687,41.666626s41.666687-18.6547852,41.666687-41.666626v-49.333374c65.0873413-23.0118408,99.1962891-94.4304199,76.1844482-159.5178223-23.0119019-65.0873413-94.4304199-99.1962891-159.5178223-76.1844482ZM500.1186523,666.666687c-23.0119019,0-41.666687-18.6547852-41.666687-41.666687s18.6547852-41.666687,41.666687-41.666687,41.666687,18.6547852,41.666687,41.666687-18.6547852,41.666687-41.666687,41.666687Z"/>
</svg>